<svg xmlns="http://www.w3.org/2000/svg" viewBox="0 0 24 24" fill="none" stroke="currentColor" stroke-width="1.5" stroke-linecap="round" stroke-linejoin="round">
  <path d="M20.25 14.15v4.25c0 1.094-.787 2.036-1.872 2.18-2.087.277-4.216.42-6.378.42s-4.291-.143-6.378-.42c-1.085-.144-1.872-1.086-1.872-2.18v-4.25m16.5 0a2.18 2.18 0 00.75-1.661V8.706c0-1.081-.768-2.015-1.837-2.175a48.114 48.114 0 00-3.413-.387m4.5 8.006c-.194.165-.42.295-.673.38A23.978 23.978 0 0112 17.25c-2.97 0-5.84-.534-8.5-1.5M12 17.25V8.685m4.5 5.465a48.11 48.11 0 01-3.413.387m0-6.865V5.25A2.25 2.25 0 0010.837 3h-1.674A2.25 2.25 0 007 5.25v1.362m0 0a48.11 48.11 0 013.413-.387m0 0A48.114 48.114 0 0112 6m0 0a48.11 48.11 0 013.413.387"/>
</svg>
