<svg viewBox="0 0 6.35 6.35" fill="currentColor" xmlns="http://www.w3.org/2000/svg">
  <path d="m 0.265,5.82 a 0.265,0.265 0 0 0 -0.266,0.266 0.265,0.265 0 0 0 0.266,0.264 h 5.82 a 0.265,0.265 0 0 0 0.266,-0.264 0.265,0.265 0 0 0 -0.266,-0.266 z"/>
  <path d="m 1.163,3.969 c -0.347,0 -0.635,0.288 -0.635,0.635 v 1.482 a 0.265,0.265 0 0 0 0.266,0.264 h 1.059 a 0.265,0.265 0 0 0 0.264,-0.264 v -1.482 c 0,-0.347 -0.288,-0.635 -0.635,-0.635 z"/>
  <path d="m 3.017,3.068 c -0.347,0 -0.635,0.288 -0.635,0.635 v 2.383 a 0.265,0.265 0 0 0 0.264,0.264 h 1.059 a 0.265,0.265 0 0 0 0.264,-0.264 v -2.383 c 0,-0.347 -0.288,-0.635 -0.635,-0.635 z"/>
  <path d="m 4.868,2.276 c -0.347,0 -0.635,0.288 -0.635,0.635 v 3.176 a 0.265,0.265 0 0 0 0.264,0.264 h 1.059 a 0.265,0.265 0 0 0 0.266,-0.264 v -3.176 c 0,-0.347 -0.29,-0.635 -0.637,-0.635 z"/>
  <path d="M 4.621,0 A 0.265,0.265 0 0 0 4.356,0.264 0.265,0.265 0 0 0 4.621,0.529 H 4.894 C 3.397,1.816 1.831,2.615 0.216,2.914 A 0.265,0.265 0 0 0 0.005,3.223 0.265,0.265 0 0 0 0.312,3.436 C 2.05,3.114 3.723,2.25 5.292,0.888 V 1.199 A 0.265,0.265 0 0 0 5.556,1.465 0.265,0.265 0 0 0 5.821,1.199 V 0.42 C 5.822,0.192 5.628,0 5.4,0 Z"/>
</svg>
