<svg viewBox="0 0 512 512" fill="currentColor" xmlns="http://www.w3.org/2000/svg">
  <path d="M265.765 277.662v-34.071v-26.997V107.745c0-3.141-1.287-5.98-3.343-8.047-2.058-2.056-4.895-3.334-8.047-3.334-6.283 0-11.381 5.097-11.381 11.381v94.297l-45.502-29.034c-1.905-1.216-4.032-1.804-6.141-1.804-3.749 0-7.407 1.865-9.576 5.27-3.385 5.29-1.845 12.344 3.466 15.729l57.753 36.867v67.675v29.733v34.983c0 3.141 1.276 5.99 3.334 8.046 2.067 2.057 4.904 3.345 8.046 3.345 6.293 0 11.39-5.097 11.39-11.391v-54.065l88.258-74.019c2.696-2.25 4.084-5.482 4.084-8.736 0-2.584-.892-5.178-2.666-7.306-4.064-4.824-11.238-5.452-16.052-1.408L265.765 277.662z"/>
  <path d="M464.959 249.408c-7.073-32.054-20.531-64.3-39.998-95.817C388.427 94.439 332.124 41.326 270.478 7.864L255.997 0l-14.482 7.864C179.881 41.326 123.576 94.439 87.043 153.591c-19.468 31.517-32.926 63.763-39.999 95.817-7.824 35.418-7.6 69.651.648 101.725l.172.689.213.678c10.528 34.223 34.526 60.754 69.398 76.736 32.104 14.714 65.608 16.904 82.714 16.904 1.327 0 2.614-.01 3.871-.031v35.53V512h30.362h43.161h30.362v-30.361v-35.53c1.257.021 2.544.031 3.861.031 17.116 0 50.609-2.19 82.723-16.904 34.872-15.972 58.869-42.512 69.398-76.736l.204-.678.182-.689c8.248-32.074 8.462-66.307.648-101.725zM434.903 343.574c-18.008 58.544-82.35 72.204-123.098 72.204-18.11 0-31.567-2.696-34.223-5.35v71.212h-43.161v-71.212c-2.655 2.654-16.113 5.35-34.233 5.35-40.749 0-105.08-13.66-123.098-72.204-29.277-113.856 65.06-247.22 178.906-309.027C369.852 96.354 464.179 229.718 434.903 343.574z"/>
</svg>
