<svg viewBox="0 0 523.94 426.01" fill="currentColor" xmlns="http://www.w3.org/2000/svg">
  <defs>
    <linearGradient id="logo-full-gradient" gradientUnits="userSpaceOnUse" x1="0" y1="0" x2="523.94" y2="426.01">
      <stop offset="0%" style="stop-color: var(--logo-gradient-start, #0F15FD)" />
      <stop offset="50%" style="stop-color: var(--logo-gradient-mid, #0a0ecc)" />
      <stop offset="100%" style="stop-color: var(--logo-gradient-end, #020466)" />
    </linearGradient>
  </defs>
  <path d="m301.52,171.11c-41.58.67-76.15,27.12-88.31,65.51,14.31,5.83,29.95,9.07,46.35,9.07,50.77,0,94.33-30.8,113.06-74.72-23.7-.1-47.41-.25-71.1.13"/>
  <path d="m220.88,74.73c42.24-.48,77.5-26.84,89.88-63.55-15.59-7.16-32.92-11.18-51.19-11.18-50.8,0-94.39,30.83-113.09,74.8,24.8.06,49.6.22,74.4-.06"/>
  <path d="m350.17,144.03c13.76-8.48,24.38-18.76,31.85-30.68-3.06-40.01-25.27-74.64-57.5-94.76-21.02,43.1-42.11,86.34-63.45,130.09,30.83,13.61,60.82,12.78,89.1-4.65"/>
  <path d="m141.61,135.88c-1.21,2.18-2.29,4.4-3.3,6.64,6.04,37.5,29.05,69.31,60.9,87.32,21.65-44.38,43.18-88.53,64.69-132.63-30.73-18.56-93.04-13.98-122.29,38.67"/>
  <path d="m425.11,327.29h-18.5v96.19h18.5v-96.19ZM0,423.47h88.6v-16.55H24.73l61.92-64.45v-15.19H2.92v16.55h59L0,408.29v15.19Zm295.16-27.6h-18.84c-2.65,9.01-9.63,12.99-19.04,12.99-12.07,0-20.06-6.62-20.06-21.81v-42.84h38.97v-16.94h-38.97v-31.07h-18.5v90.84c0,26.09,15.58,38.94,38.55,38.94,20.22,0,34.69-9.96,37.88-30.13m89.85-41.53c-.39-16.55-14.6-29.6-37.58-29.6s-37.77,12.85-37.77,31.74c0,22,20.25,25.12,36.99,27.26,12.07,1.56,22.2,2.73,22.2,11.88,0,7.59-7.21,13.63-21.22,13.63s-20.83-5.65-21.22-13.63h-18.69c.58,17.53,15.77,30.38,39.92,30.38s39.92-12.66,39.92-32.13c0-22-20.44-25.12-37.19-27.26-11.88-1.56-22-2.53-22-11.68,0-7.59,7.01-13.44,19.28-13.44s18.5,5.45,19.08,12.85h18.3Z"/>
  <path d="m523.94,395.88h-18.84c-2.65,9.02-9.63,12.99-19.04,12.99-12.07,0-20.06-6.62-20.06-21.81v-42.84h38.97v-16.94h-38.97v-31.06h-18.5v90.84c0,26.09,15.58,38.94,38.55,38.94,20.22,0,34.69-9.96,37.88-30.13"/>
  <path d="m182.8,372.99c0,18.04-14.81,32.66-33.07,32.66s-33.07-14.62-33.07-32.66,14.81-32.66,33.07-32.66,33.07,14.62,33.07,32.66m17.93,50.49v-50.49h-.04c-.47-27.02-23.09-48.79-50.96-48.79s-51,22.22-51,49.64,22.83,49.64,51,49.64c12.63,0,24.17-4.49,33.07-11.9v11.9h17.93Z"/>
</svg>
